<svg version="1.1" id="Layer_1" xmlns="http://www.w3.org/2000/svg" xmlns:xlink="http://www.w3.org/1999/xlink" x="0px" y="0px"
	 width="100%" viewBox="0 0 2229 1871" enable-background="new 0 0 2229 1871" xml:space="preserve">
<path fill="#000000" opacity="1.000000" stroke="none" 
	d="
M1585.000000,1872.000000 
	C1056.666626,1872.000000 528.833313,1872.000000 1.000000,1872.000000 
	C1.000000,1248.333374 1.000000,624.666687 1.000000,1.000000 
	C744.000000,1.000000 1487.000000,1.000000 2230.000000,1.000000 
	C2230.000000,624.666687 2230.000000,1248.333374 2230.000000,1872.000000 
	C2015.166626,1872.000000 1800.333374,1872.000000 1585.000000,1872.000000 
M1892.764526,971.744934 
	C1891.453247,972.397339 1890.141846,973.049805 1888.830566,973.702026 
	C1877.473022,979.351318 1866.497192,986.044434 1854.657349,990.374878 
	C1841.117065,995.327209 1826.940430,998.828491 1812.785034,1001.703064 
	C1804.127808,1003.461121 1794.990601,1002.854858 1784.663574,1003.382202 
	C1786.265747,1002.125732 1786.482178,1001.893860 1786.747437,1001.756714 
	C1813.595581,987.876160 1836.981201,969.510071 1857.287354,947.185547 
	C1865.895386,937.721802 1874.766479,928.456848 1882.798584,918.520081 
	C1892.637817,906.347900 1902.178223,893.877441 1911.007080,880.961243 
	C1919.883057,867.975708 1927.730835,854.286926 1936.016357,840.898499 
	C1937.099365,839.148743 1938.105957,837.351624 1939.147827,835.576416 
	C1923.463989,844.639160 1908.626709,854.233093 1893.679932,863.653503 
	C1876.094971,874.736572 1858.536987,885.870972 1840.736206,896.599792 
	C1827.780273,904.408508 1814.492798,911.672729 1801.275146,919.039734 
	C1783.237671,929.093140 1765.376953,939.506836 1746.981567,948.863647 
	C1724.965210,960.062439 1702.633789,970.683960 1680.121704,980.853577 
	C1661.152222,989.422913 1641.959961,997.611145 1622.448120,1004.839233 
	C1598.375610,1013.756836 1573.947632,1021.744751 1549.517334,1029.652954 
	C1538.317505,1033.278198 1526.745605,1035.754517 1514.925659,1038.861450 
	C1520.739258,1029.811890 1526.166626,1021.385132 1531.572510,1012.944641 
	C1548.809814,986.031189 1562.008667,957.082153 1572.854248,927.177185 
	C1578.901245,910.503662 1582.503784,892.937195 1587.088501,875.741272 
	C1594.330688,848.578430 1597.235474,820.728943 1598.773438,792.812744 
	C1599.675171,776.444458 1598.863281,759.920227 1597.853149,743.525879 
	C1596.898071,728.022644 1595.549072,712.439880 1592.794189,697.177185 
	C1589.219360,677.372070 1584.882080,657.621094 1579.371826,638.274475 
	C1574.713623,621.919556 1568.696655,605.832092 1561.867676,590.245544 
	C1553.510864,571.171631 1544.440918,552.318481 1534.286865,534.147949 
	C1522.763306,513.526855 1509.594849,493.834930 1494.286865,475.713226 
	C1484.927734,464.633942 1475.950073,453.179779 1465.942505,442.715057 
	C1455.531006,431.828033 1444.497681,421.442261 1432.988892,411.721954 
	C1418.744263,399.690765 1404.172119,387.944885 1388.948364,377.199127 
	C1364.780273,360.140045 1338.902466,345.960846 1311.688843,334.202301 
	C1287.405762,323.710052 1262.605469,314.790039 1236.796753,309.018066 
	C1218.219238,304.863312 1199.548584,300.815430 1180.713257,298.209473 
	C1161.357056,295.531403 1141.766113,294.427460 1122.245117,293.127380 
	C1115.362427,292.669006 1108.376831,293.573334 1101.448608,294.019440 
	C1086.975464,294.951263 1072.435547,295.389771 1058.059814,297.148468 
	C1041.908813,299.124359 1025.806030,301.840240 1009.873169,305.152405 
	C995.713806,308.095795 981.669617,311.821930 967.846619,316.084656 
	C956.076965,319.714142 944.462769,324.074127 933.192993,329.047394 
	C914.292603,337.387970 895.114563,345.401520 877.180664,355.545624 
	C859.132935,365.754089 841.884827,377.634308 825.342468,390.175140 
	C807.958679,403.353943 791.638672,417.970337 775.239258,432.396698 
	C768.456299,438.363586 762.622620,445.420898 756.455627,452.073425 
	C750.996887,457.961975 745.133667,463.579041 740.398926,470.014771 
	C728.751404,485.847046 716.904907,501.617798 706.538940,518.284363 
	C696.134338,535.012878 687.334961,552.747437 677.994385,570.128235 
	C666.139221,592.188110 658.163757,615.850769 651.200867,639.729126 
	C644.516663,662.651794 638.959595,685.946533 636.935974,709.914307 
	C635.554688,726.275208 632.774353,742.565186 632.257080,758.938538 
	C631.752014,774.928040 632.909058,791.014404 634.110718,807.000122 
	C635.190308,821.362305 637.000061,835.692017 639.064026,849.952637 
	C642.131958,871.149353 646.804199,892.061157 653.802979,912.298035 
	C660.203430,930.804871 667.090210,949.191956 674.840637,967.166992 
	C680.248108,979.708069 687.153870,991.649292 693.978943,1003.520020 
	C700.763123,1015.319397 708.283081,1026.695801 715.423340,1038.166016 
	C714.447632,1038.101440 713.106384,1038.242188 711.903503,1037.898682 
	C692.941589,1032.482300 673.921448,1027.250732 655.077454,1021.448120 
	C643.501038,1017.883423 632.201538,1013.420044 620.775574,1009.366089 
	C582.424866,995.759338 545.449036,978.920532 508.845398,961.275085 
	C491.829071,953.072021 475.243347,943.969299 458.527954,935.150269 
	C447.014069,929.075562 435.443085,923.078491 424.200623,916.526917 
	C407.069885,906.544006 390.155304,896.186523 373.234741,885.847717 
	C357.498840,876.232544 341.818726,866.523193 326.220825,856.686096 
	C314.993042,849.605042 303.940704,842.245728 292.810120,835.010498 
	C296.026978,842.466248 299.775482,849.408875 304.058044,856.004761 
	C313.559479,870.638672 322.793304,885.494141 333.148193,899.511719 
	C342.413055,912.053650 352.981720,923.637939 363.069641,935.564880 
	C377.213623,952.287231 393.074921,967.349854 410.343781,980.682068 
	C421.323303,989.158875 433.810760,995.682556 445.460541,1002.980835 
	C405.757477,1004.368835 369.987915,991.077820 335.694641,971.143616 
	C351.299164,989.920044 366.903717,1008.696472 383.213379,1028.321289 
	C374.813995,1028.321289 367.471008,1028.321289 360.128021,1028.321289 
	C393.109650,1060.955078 426.803589,1092.130127 465.864716,1117.290161 
	C454.827332,1117.290161 443.789948,1117.290161 431.623596,1117.290161 
	C440.998016,1124.455444 449.444061,1130.911011 457.890076,1137.366699 
	C457.701721,1137.849976 457.513336,1138.333252 457.324951,1138.816528 
	C450.759918,1138.816528 443.947784,1139.951050 437.680054,1138.585938 
	C423.607483,1135.521118 409.808807,1131.201782 395.885956,1127.440063 
	C394.817352,1127.151245 393.649445,1127.229980 391.600861,1127.061890 
	C398.283264,1132.217651 403.759827,1137.150269 409.898254,1141.038086 
	C424.551422,1150.318604 439.113953,1159.878540 454.463959,1167.886230 
	C471.493500,1176.770386 489.078217,1184.755249 506.924744,1191.868408 
	C532.213623,1201.947754 558.781921,1206.898560 587.335022,1208.156006 
	C573.563538,1214.010498 561.001892,1219.350586 547.577881,1225.057251 
	C563.646179,1225.057251 578.490051,1225.323975 593.319702,1224.978638 
	C606.869446,1224.663086 620.415710,1223.859131 633.940063,1222.928833 
	C641.113464,1222.435425 648.293213,1221.527466 655.369812,1220.250732 
	C665.602783,1218.404419 675.744812,1216.053711 686.292358,1214.313110 
	C686.415588,1214.443970 686.538757,1214.574707 686.213867,1215.205566 
	C680.838684,1219.928711 675.468872,1224.658081 670.087402,1229.373779 
	C659.842102,1238.351440 649.590088,1247.321289 638.905212,1256.671265 
	C638.786377,1257.042969 638.667542,1257.414673 638.548645,1257.786255 
	C639.056641,1257.550903 639.564636,1257.315430 640.836914,1257.012817 
	C641.336487,1256.995361 641.894470,1257.119385 642.327148,1256.940308 
	C657.787842,1250.540161 673.235107,1244.108154 688.687927,1237.689087 
	C700.519409,1232.774048 712.342224,1227.838135 724.193420,1222.970947 
	C736.990356,1217.715454 749.815735,1212.529175 763.432739,1206.985352 
	C760.210693,1216.827148 757.288452,1225.753174 754.366211,1234.679199 
	C763.795898,1228.668091 772.342712,1222.111084 780.914307,1215.586792 
	C789.369629,1209.151245 797.850159,1202.748779 806.700317,1196.702637 
	C806.828247,1196.825317 806.956177,1196.947876 806.996643,1197.783569 
	C793.994507,1220.248413 776.312744,1238.893921 758.004395,1257.028198 
	C780.183105,1252.220703 828.400635,1234.032715 846.443970,1210.514893 
	C842.978333,1223.041260 839.802551,1234.520142 836.626709,1245.999023 
	C837.015137,1246.081787 837.403564,1246.164673 837.791992,1246.247437 
	C855.967834,1229.602661 874.143738,1212.957886 892.700806,1196.693848 
	C892.828857,1196.819824 892.956909,1196.945801 892.996216,1197.798706 
	C887.392944,1208.346069 881.871765,1218.938232 876.162415,1229.427856 
	C870.880371,1239.132324 865.273499,1248.661133 860.047974,1258.395142 
	C856.864014,1264.326172 854.130859,1270.499146 851.195190,1276.563477 
	C851.444275,1276.772827 851.693420,1276.982178 851.942505,1277.191528 
	C882.095215,1247.552368 912.247864,1217.913086 942.400574,1188.273926 
	C942.687256,1188.454834 942.973938,1188.635742 943.260620,1188.816528 
	C940.384949,1200.983276 937.509277,1213.149902 934.633606,1225.316528 
	C934.979004,1225.427490 935.324341,1225.538330 935.669739,1225.649292 
	C951.608337,1212.841553 967.546875,1200.033691 984.162231,1186.682129 
	C981.519470,1199.540894 979.072449,1211.447510 976.625427,1223.354126 
	C976.947083,1223.556885 977.268799,1223.759644 977.590454,1223.962402 
	C987.249023,1216.615723 996.907654,1209.268921 1006.566223,1201.922241 
	C1016.150330,1194.632202 1025.734375,1187.342163 1035.318481,1180.052124 
	C1021.003418,1212.265015 998.581177,1236.743408 968.000427,1253.893311 
	C993.440491,1247.017700 1018.887695,1240.335205 1040.048584,1223.016602 
	C1039.923828,1224.533936 1039.974243,1226.177246 1039.628906,1227.732666 
	C1038.125244,1234.501465 1036.223511,1241.193237 1034.982666,1248.006958 
	C1031.220459,1268.666138 1023.984314,1288.178833 1015.297363,1307.142090 
	C1007.059326,1325.125366 997.758850,1342.596436 984.048828,1357.171631 
	C975.363953,1366.404541 967.046265,1376.246582 957.138794,1383.992798 
	C946.773621,1392.096680 934.727051,1398.059814 923.355591,1404.858521 
	C921.120911,1406.194702 918.613037,1407.073853 916.231201,1408.163940 
	C916.415405,1408.547119 916.599609,1408.930298 916.783813,1409.313477 
	C953.138794,1397.400391 990.354004,1387.332520 1020.618774,1359.622192 
	C1014.824402,1376.663696 1009.385010,1392.660889 1003.945679,1408.658203 
	C1004.315857,1408.771973 1004.686035,1408.885864 1005.056213,1408.999634 
	C1016.153320,1395.128418 1027.250366,1381.257202 1038.347534,1367.386108 
	C1038.525391,1367.508667 1038.703247,1367.631348 1038.881104,1367.754028 
	C1028.277100,1399.621704 1017.672974,1431.489258 1007.068909,1463.356812 
	C1007.420166,1463.522461 1007.771362,1463.687988 1008.122559,1463.853638 
	C1019.844299,1444.386963 1031.566162,1424.920288 1043.287842,1405.453613 
	C1043.572021,1405.586060 1043.856201,1405.718384 1044.140381,1405.850830 
	C1035.024536,1444.319702 1025.908691,1482.788574 1016.792847,1521.257446 
	C1017.177917,1521.386108 1017.563049,1521.514771 1017.948120,1521.643311 
	C1040.429199,1467.003540 1062.910278,1412.363647 1085.391357,1357.723877 
	C1085.638672,1357.793579 1085.885864,1357.863159 1086.133179,1357.932861 
	C1078.064819,1404.348633 1069.996338,1450.764282 1061.927979,1497.179932 
	C1062.281494,1497.275146 1062.635010,1497.370361 1062.988525,1497.465576 
	C1073.333008,1468.599976 1083.677490,1439.734253 1094.415894,1409.769165 
	C1101.410034,1467.163208 1108.228027,1523.111450 1115.045898,1579.059570 
	C1115.425659,1579.075928 1115.805298,1579.092285 1116.185059,1579.108643 
	C1122.941528,1523.447388 1129.698120,1467.786255 1136.454590,1412.125000 
	C1136.824951,1412.116821 1137.195190,1412.108643 1137.565552,1412.100464 
	C1147.791504,1440.575684 1158.017456,1469.050781 1168.243408,1497.525879 
	C1168.578003,1497.435791 1168.912720,1497.345703 1169.247314,1497.255737 
	C1161.177124,1450.824463 1153.107056,1404.393188 1145.036865,1357.961914 
	C1145.304443,1357.893677 1145.572021,1357.825439 1145.839722,1357.757324 
	C1168.280396,1412.332886 1190.721191,1466.908447 1213.161865,1521.484009 
	C1213.540771,1521.360107 1213.919556,1521.236328 1214.298462,1521.112427 
	C1205.197632,1482.642456 1196.096802,1444.172485 1186.995850,1405.702515 
	C1187.301880,1405.601196 1187.607910,1405.499878 1187.913818,1405.398560 
	C1199.643188,1424.908203 1211.372559,1444.417725 1223.704346,1464.929321 
	C1223.704346,1463.176392 1223.826660,1462.670654 1223.686646,1462.252808 
	C1217.949829,1445.126099 1212.126221,1428.028198 1206.451538,1410.880859 
	C1201.849487,1396.975464 1197.422729,1383.011963 1193.312622,1368.707275 
	C1193.443359,1368.584229 1193.573975,1368.461182 1194.209106,1368.781738 
	C1204.835938,1382.198730 1215.462891,1395.615601 1226.089722,1409.032471 
	C1226.433350,1408.828247 1226.776978,1408.624023 1227.120728,1408.419678 
	C1221.734741,1392.511475 1216.348755,1376.603271 1210.714966,1359.962891 
	C1240.998291,1386.900879 1277.718750,1397.644653 1314.366089,1408.542969 
	C1309.951172,1405.894287 1304.930786,1404.382202 1300.617920,1401.722656 
	C1291.077637,1395.839600 1281.826538,1389.476318 1272.579956,1383.130737 
	C1260.361206,1374.745361 1250.977173,1363.489136 1242.362671,1351.691895 
	C1235.875000,1342.807129 1230.157104,1333.336060 1224.443970,1323.915405 
	C1214.949951,1308.260132 1208.690430,1291.152100 1203.066406,1273.840820 
	C1200.015015,1264.447876 1197.521973,1254.854492 1195.202393,1245.249023 
	C1193.410034,1237.825928 1192.279053,1230.242920 1190.882446,1222.880615 
	C1196.762939,1226.872559 1202.030151,1230.992920 1207.800659,1234.210449 
	C1213.467773,1237.370483 1219.573486,1239.795532 1225.620361,1242.208130 
	C1231.821289,1244.682251 1238.141602,1246.879639 1244.487915,1248.959473 
	C1250.545410,1250.944702 1256.703735,1252.622437 1262.817627,1254.435425 
	C1225.697632,1233.203979 1201.916382,1199.185669 1195.873291,1179.987915 
	C1215.271606,1194.774536 1234.561279,1209.478394 1254.641846,1224.785034 
	C1254.090332,1221.707153 1253.766357,1219.798462 1253.404663,1217.896851 
	C1251.577515,1208.291748 1249.740845,1198.688599 1248.304932,1188.723633 
	C1248.436523,1188.602417 1248.568237,1188.481079 1249.220947,1188.800171 
	C1262.265503,1199.150635 1275.286499,1209.531006 1288.380493,1219.818604 
	C1290.306885,1221.332153 1292.579468,1222.405396 1294.691895,1223.682373 
	C1294.704956,1221.111816 1295.205322,1218.429077 1294.643921,1215.990723 
	C1292.544556,1206.871338 1290.097656,1197.831909 1287.781128,1188.762573 
	C1288.069702,1188.672607 1288.358276,1188.582642 1288.646973,1188.492676 
	C1318.529053,1217.546387 1348.411133,1246.600098 1378.669189,1276.089722 
	C1379.040283,1276.210205 1379.411377,1276.330688 1379.782471,1276.451172 
	C1379.547363,1275.944214 1379.312256,1275.437134 1378.990723,1274.200562 
	C1377.317139,1271.083008 1375.634033,1267.970581 1373.971802,1264.846924 
	C1361.951538,1242.257446 1349.935547,1219.665649 1338.312744,1196.718994 
	C1338.443359,1196.599487 1338.573975,1196.480103 1339.195801,1196.821411 
	C1340.638428,1197.887817 1342.201782,1198.824707 1343.504761,1200.040771 
	C1354.703125,1210.493652 1365.811523,1221.043213 1377.038208,1231.465454 
	C1382.686768,1236.709351 1388.524658,1241.749146 1395.192383,1247.697998 
	C1391.516724,1234.811646 1388.200439,1223.184937 1384.828735,1211.364380 
	C1409.072632,1237.022705 1440.870728,1247.194702 1472.831055,1257.319946 
	C1454.158691,1238.314819 1436.091675,1219.062866 1423.663940,1195.098389 
	C1441.139404,1208.501953 1458.614868,1221.905518 1476.090332,1235.309082 
	C1476.380981,1235.059814 1476.671753,1234.810547 1476.962402,1234.561279 
	C1474.000000,1225.583374 1471.037598,1216.605469 1467.863281,1206.985107 
	C1509.805176,1224.180542 1551.040649,1241.086304 1592.276245,1257.992065 
	C1592.497192,1257.689209 1592.718140,1257.386475 1592.939087,1257.083618 
	C1576.393311,1242.536499 1559.847534,1227.989380 1543.394043,1213.523438 
	C1589.214355,1225.816040 1636.064087,1226.053589 1682.990967,1225.374023 
	C1676.838257,1222.063843 1670.642090,1219.369995 1664.419312,1216.739136 
	C1658.228394,1214.121704 1652.010986,1211.567505 1645.805298,1208.985474 
	C1719.746216,1203.727905 1781.290894,1170.726318 1838.628662,1127.667358 
	C1827.737793,1130.155762 1817.130859,1133.580444 1806.294800,1135.963379 
	C1787.454224,1140.106445 1776.896118,1140.212280 1773.534058,1137.227417 
	C1781.900635,1130.761230 1790.266113,1124.295776 1798.631592,1117.830322 
	C1798.449585,1117.475464 1798.267456,1117.120605 1798.085449,1116.765747 
	C1787.068115,1116.765747 1776.050781,1116.765747 1764.408447,1116.765747 
	C1804.413574,1092.083740 1838.104492,1060.973755 1871.333130,1029.308716 
	C1871.105713,1028.823120 1870.878418,1028.337402 1870.651001,1027.851807 
	C1863.494629,1027.851807 1856.338135,1027.851807 1849.181763,1027.851807 
	C1848.755493,1027.221680 1848.329224,1026.591553 1847.902954,1025.961426 
	C1849.774292,1024.646118 1852.027832,1023.653748 1853.455322,1021.963623 
	C1863.196533,1010.428467 1872.806763,998.781372 1882.367310,987.095276 
	C1886.387695,982.181152 1890.184814,977.084229 1894.614624,971.836121 
	C1894.661621,971.388733 1894.708740,970.941284 1894.755737,970.493835 
	C1894.276855,970.767395 1893.797974,971.040955 1892.764526,971.744934 
z"/>
<path fill="#929292" opacity="1.000000" stroke="none" 
	d="
M1192.918213,1369.074219 
	C1197.422729,1383.011963 1201.849487,1396.975464 1206.451538,1410.880859 
	C1212.126221,1428.028198 1217.949829,1445.126099 1223.686646,1462.252808 
	C1223.826660,1462.670654 1223.704346,1463.176392 1223.704346,1464.929321 
	C1211.372559,1444.417725 1199.643188,1424.908203 1187.913818,1405.398560 
	C1187.607910,1405.499878 1187.301880,1405.601196 1186.995850,1405.702515 
	C1196.096802,1444.172485 1205.197632,1482.642456 1214.298462,1521.112427 
	C1213.919556,1521.236328 1213.540771,1521.360107 1213.161865,1521.484009 
	C1190.721191,1466.908447 1168.280396,1412.332886 1145.839722,1357.757324 
	C1145.572021,1357.825439 1145.304443,1357.893677 1145.036865,1357.961914 
	C1153.107056,1404.393188 1161.177124,1450.824463 1169.247314,1497.255737 
	C1168.912720,1497.345703 1168.578003,1497.435791 1168.243408,1497.525879 
	C1158.017456,1469.050781 1147.791504,1440.575684 1137.565552,1412.100464 
	C1137.195190,1412.108643 1136.824951,1412.116821 1136.454590,1412.125000 
	C1129.698120,1467.786255 1122.941528,1523.447388 1116.185059,1579.108643 
	C1115.805298,1579.092285 1115.425659,1579.075928 1115.045898,1579.059570 
	C1108.228027,1523.111450 1101.410034,1467.163208 1094.415894,1409.769165 
	C1083.677490,1439.734253 1073.333008,1468.599976 1062.988525,1497.465576 
	C1062.635010,1497.370361 1062.281494,1497.275146 1061.927979,1497.179932 
	C1069.996338,1450.764282 1078.064819,1404.348633 1086.133179,1357.932861 
	C1085.885864,1357.863159 1085.638672,1357.793579 1085.391357,1357.723877 
	C1062.910278,1412.363647 1040.429199,1467.003540 1017.948120,1521.643311 
	C1017.563049,1521.514771 1017.177917,1521.386108 1016.792847,1521.257446 
	C1025.908691,1482.788574 1035.024536,1444.319702 1044.140381,1405.850830 
	C1043.856201,1405.718384 1043.572021,1405.586060 1043.287842,1405.453613 
	C1031.566162,1424.920288 1019.844299,1444.386963 1008.122559,1463.853638 
	C1007.771362,1463.687988 1007.420166,1463.522461 1007.068909,1463.356812 
	C1017.672974,1431.489258 1028.277100,1399.621704 1038.881104,1367.754028 
	C1038.703247,1367.631348 1038.525391,1367.508667 1038.347534,1367.386108 
	C1027.250366,1381.257202 1016.153320,1395.128418 1005.056213,1408.999634 
	C1004.686035,1408.885864 1004.315857,1408.771973 1003.945679,1408.658203 
	C1009.385010,1392.660889 1014.824402,1376.663696 1020.618774,1359.622192 
	C990.354004,1387.332520 953.138794,1397.400391 916.783813,1409.313477 
	C916.599609,1408.930298 916.415405,1408.547119 916.231201,1408.163940 
	C918.613037,1407.073853 921.120911,1406.194702 923.355591,1404.858521 
	C934.727051,1398.059814 946.773621,1392.096680 957.138794,1383.992798 
	C967.046265,1376.246582 975.363953,1366.404541 984.048828,1357.171631 
	C997.758850,1342.596436 1007.059326,1325.125366 1015.297363,1307.142090 
	C1023.984314,1288.178833 1031.220459,1268.666138 1034.982666,1248.006958 
	C1036.223511,1241.193237 1038.125244,1234.501465 1039.628906,1227.732666 
	C1039.974243,1226.177246 1039.923828,1224.533936 1040.048584,1223.016602 
	C1018.887695,1240.335205 993.440491,1247.017700 968.000427,1253.893311 
	C998.581177,1236.743408 1021.003418,1212.265015 1035.318481,1180.052124 
	C1025.734375,1187.342163 1016.150330,1194.632202 1006.566223,1201.922241 
	C996.907654,1209.268921 987.249023,1216.615723 977.590454,1223.962402 
	C977.268799,1223.759644 976.947083,1223.556885 976.625427,1223.354126 
	C979.072449,1211.447510 981.519470,1199.540894 984.162231,1186.682129 
	C967.546875,1200.033691 951.608337,1212.841553 935.669739,1225.649292 
	C935.324341,1225.538330 934.979004,1225.427490 934.633606,1225.316528 
	C937.509277,1213.149902 940.384949,1200.983276 943.260620,1188.816528 
	C942.973938,1188.635742 942.687256,1188.454834 942.400574,1188.273926 
	C912.247864,1217.913086 882.095215,1247.552368 851.942505,1277.191528 
	C851.693420,1276.982178 851.444275,1276.772827 851.195190,1276.563477 
	C854.130859,1270.499146 856.864014,1264.326172 860.047974,1258.395142 
	C865.273499,1248.661133 870.880371,1239.132324 876.162415,1229.427856 
	C881.871765,1218.938232 887.392944,1208.346069 893.306030,1197.317627 
	C893.662842,1196.389160 893.709900,1195.941772 893.757019,1195.494263 
	C893.277893,1195.767212 892.798767,1196.040161 892.319641,1196.313110 
	C874.143738,1212.957886 855.967834,1229.602661 837.791992,1246.247437 
	C837.403564,1246.164673 837.015137,1246.081787 836.626709,1245.999023 
	C839.802551,1234.520142 842.978333,1223.041260 846.443970,1210.514893 
	C828.400635,1234.032715 780.183105,1252.220703 758.004395,1257.028198 
	C776.312744,1238.893921 793.994507,1220.248413 807.306519,1197.308716 
	C807.660950,1196.384888 807.705566,1195.935913 807.750183,1195.486938 
	C807.273315,1195.768555 806.796448,1196.050171 806.319580,1196.331787 
	C797.850159,1202.748779 789.369629,1209.151245 780.914307,1215.586792 
	C772.342712,1222.111084 763.795898,1228.668091 754.366211,1234.679199 
	C757.288452,1225.753174 760.210693,1216.827148 763.432739,1206.985352 
	C749.815735,1212.529175 736.990356,1217.715454 724.193420,1222.970947 
	C712.342224,1227.838135 700.519409,1232.774048 688.687927,1237.689087 
	C673.235107,1244.108154 657.787842,1250.540161 642.327148,1256.940308 
	C641.894470,1257.119385 641.336487,1256.995361 640.272583,1256.849365 
	C639.585693,1256.555420 639.463257,1256.424805 639.340820,1256.294312 
	C649.590088,1247.321289 659.842102,1238.351440 670.087402,1229.373779 
	C675.468872,1224.658081 680.838684,1219.928711 686.655884,1214.766846 
	C687.215759,1213.955811 687.333740,1213.583496 687.451660,1213.211182 
	C686.942993,1213.446777 686.434326,1213.682373 685.925659,1213.918091 
	C675.744812,1216.053711 665.602783,1218.404419 655.369812,1220.250732 
	C648.293213,1221.527466 641.113464,1222.435425 633.940063,1222.928833 
	C620.415710,1223.859131 606.869446,1224.663086 593.319702,1224.978638 
	C578.490051,1225.323975 563.646179,1225.057251 547.577881,1225.057251 
	C561.001892,1219.350586 573.563538,1214.010498 587.335022,1208.156006 
	C558.781921,1206.898560 532.213623,1201.947754 506.924744,1191.868408 
	C489.078217,1184.755249 471.493500,1176.770386 454.463959,1167.886230 
	C439.113953,1159.878540 424.551422,1150.318604 409.898254,1141.038086 
	C403.759827,1137.150269 398.283264,1132.217651 391.600861,1127.061890 
	C393.649445,1127.229980 394.817352,1127.151245 395.885956,1127.440063 
	C409.808807,1131.201782 423.607483,1135.521118 437.680054,1138.585938 
	C443.947784,1139.951050 450.759918,1138.816528 457.324951,1138.816528 
	C457.513336,1138.333252 457.701721,1137.849976 457.890076,1137.366699 
	C449.444061,1130.911011 440.998016,1124.455444 431.623596,1117.290161 
	C443.789948,1117.290161 454.827332,1117.290161 465.864716,1117.290161 
	C426.803589,1092.130127 393.109650,1060.955078 360.128021,1028.321289 
	C367.471008,1028.321289 374.813995,1028.321289 383.213379,1028.321289 
	C366.903717,1008.696472 351.299164,989.920044 335.694641,971.143616 
	C369.987915,991.077820 405.757477,1004.368835 445.460541,1002.980835 
	C433.810760,995.682556 421.323303,989.158875 410.343781,980.682068 
	C393.074921,967.349854 377.213623,952.287231 363.069641,935.564880 
	C352.981720,923.637939 342.413055,912.053650 333.148193,899.511719 
	C322.793304,885.494141 313.559479,870.638672 304.058044,856.004761 
	C299.775482,849.408875 296.026978,842.466248 292.810120,835.010498 
	C303.940704,842.245728 314.993042,849.605042 326.220825,856.686096 
	C341.818726,866.523193 357.498840,876.232544 373.234741,885.847717 
	C390.155304,896.186523 407.069885,906.544006 424.200623,916.526917 
	C435.443085,923.078491 447.014069,929.075562 458.527954,935.150269 
	C475.243347,943.969299 491.829071,953.072021 508.845398,961.275085 
	C545.449036,978.920532 582.424866,995.759338 620.775574,1009.366089 
	C632.201538,1013.420044 643.501038,1017.883423 655.077454,1021.448120 
	C673.921448,1027.250732 692.941589,1032.482300 711.903503,1037.898682 
	C713.106384,1038.242188 714.447632,1038.101440 715.423340,1038.166016 
	C708.283081,1026.695801 700.763123,1015.319397 693.978943,1003.520020 
	C687.153870,991.649292 680.248108,979.708069 674.840637,967.166992 
	C667.090210,949.191956 660.203430,930.804871 653.802979,912.298035 
	C646.804199,892.061157 642.131958,871.149353 639.064026,849.952637 
	C637.000061,835.692017 635.190308,821.362305 634.110718,807.000122 
	C632.909058,791.014404 631.752014,774.928040 632.257080,758.938538 
	C632.774353,742.565186 635.554688,726.275208 636.935974,709.914307 
	C638.959595,685.946533 644.516663,662.651794 651.200867,639.729126 
	C658.163757,615.850769 666.139221,592.188110 677.994385,570.128235 
	C687.334961,552.747437 696.134338,535.012878 706.538940,518.284363 
	C716.904907,501.617798 728.751404,485.847046 740.398926,470.014771 
	C745.133667,463.579041 750.996887,457.961975 756.455627,452.073425 
	C762.622620,445.420898 768.456299,438.363586 775.239258,432.396698 
	C791.638672,417.970337 807.958679,403.353943 825.342468,390.175140 
	C841.884827,377.634308 859.132935,365.754089 877.180664,355.545624 
	C895.114563,345.401520 914.292603,337.387970 933.192993,329.047394 
	C944.462769,324.074127 956.076965,319.714142 967.846619,316.084656 
	C981.669617,311.821930 995.713806,308.095795 1009.873169,305.152405 
	C1025.806030,301.840240 1041.908813,299.124359 1058.059814,297.148468 
	C1072.435547,295.389771 1086.975464,294.951263 1101.448608,294.019440 
	C1108.376831,293.573334 1115.362427,292.669006 1122.245117,293.127380 
	C1141.766113,294.427460 1161.357056,295.531403 1180.713257,298.209473 
	C1199.548584,300.815430 1218.219238,304.863312 1236.796753,309.018066 
	C1262.605469,314.790039 1287.405762,323.710052 1311.688843,334.202301 
	C1338.902466,345.960846 1364.780273,360.140045 1388.948364,377.199127 
	C1404.172119,387.944885 1418.744263,399.690765 1432.988892,411.721954 
	C1444.497681,421.442261 1455.531006,431.828033 1465.942505,442.715057 
	C1475.950073,453.179779 1484.927734,464.633942 1494.286865,475.713226 
	C1509.594849,493.834930 1522.763306,513.526855 1534.286865,534.147949 
	C1544.440918,552.318481 1553.510864,571.171631 1561.867676,590.245544 
	C1568.696655,605.832092 1574.713623,621.919556 1579.371826,638.274475 
	C1584.882080,657.621094 1589.219360,677.372070 1592.794189,697.177185 
	C1595.549072,712.439880 1596.898071,728.022644 1597.853149,743.525879 
	C1598.863281,759.920227 1599.675171,776.444458 1598.773438,792.812744 
	C1597.235474,820.728943 1594.330688,848.578430 1587.088501,875.741272 
	C1582.503784,892.937195 1578.901245,910.503662 1572.854248,927.177185 
	C1562.008667,957.082153 1548.809814,986.031189 1531.572510,1012.944641 
	C1526.166626,1021.385132 1520.739258,1029.811890 1514.925659,1038.861450 
	C1526.745605,1035.754517 1538.317505,1033.278198 1549.517334,1029.652954 
	C1573.947632,1021.744751 1598.375610,1013.756836 1622.448120,1004.839233 
	C1641.959961,997.611145 1661.152222,989.422913 1680.121704,980.853577 
	C1702.633789,970.683960 1724.965210,960.062439 1746.981567,948.863647 
	C1765.376953,939.506836 1783.237671,929.093140 1801.275146,919.039734 
	C1814.492798,911.672729 1827.780273,904.408508 1840.736206,896.599792 
	C1858.536987,885.870972 1876.094971,874.736572 1893.679932,863.653503 
	C1908.626709,854.233093 1923.463989,844.639160 1939.147827,835.576416 
	C1938.105957,837.351624 1937.099365,839.148743 1936.016357,840.898499 
	C1927.730835,854.286926 1919.883057,867.975708 1911.007080,880.961243 
	C1902.178223,893.877441 1892.637817,906.347900 1882.798584,918.520081 
	C1874.766479,928.456848 1865.895386,937.721802 1857.287354,947.185547 
	C1836.981201,969.510071 1813.595581,987.876160 1786.747437,1001.756714 
	C1786.482178,1001.893860 1786.265747,1002.125732 1784.663574,1003.382202 
	C1794.990601,1002.854858 1804.127808,1003.461121 1812.785034,1001.703064 
	C1826.940430,998.828491 1841.117065,995.327209 1854.657349,990.374878 
	C1866.497192,986.044434 1877.473022,979.351318 1888.830566,973.702026 
	C1890.141846,973.049805 1891.453247,972.397339 1893.232178,971.719421 
	C1893.827637,971.819397 1893.955566,971.944885 1894.083252,972.070435 
	C1890.184814,977.084229 1886.387695,982.181152 1882.367310,987.095276 
	C1872.806763,998.781372 1863.196533,1010.428467 1853.455322,1021.963623 
	C1852.027832,1023.653748 1849.774292,1024.646118 1847.902954,1025.961426 
	C1848.329224,1026.591553 1848.755493,1027.221680 1849.181763,1027.851807 
	C1856.338135,1027.851807 1863.494629,1027.851807 1870.651001,1027.851807 
	C1870.878418,1028.337402 1871.105713,1028.823120 1871.333130,1029.308716 
	C1838.104492,1060.973755 1804.413574,1092.083740 1764.408447,1116.765747 
	C1776.050781,1116.765747 1787.068115,1116.765747 1798.085449,1116.765747 
	C1798.267456,1117.120605 1798.449585,1117.475464 1798.631592,1117.830322 
	C1790.266113,1124.295776 1781.900635,1130.761230 1773.534058,1137.227417 
	C1776.896118,1140.212280 1787.454224,1140.106445 1806.294800,1135.963379 
	C1817.130859,1133.580444 1827.737793,1130.155762 1838.628662,1127.667358 
	C1781.290894,1170.726318 1719.746216,1203.727905 1645.805298,1208.985474 
	C1652.010986,1211.567505 1658.228394,1214.121704 1664.419312,1216.739136 
	C1670.642090,1219.369995 1676.838257,1222.063843 1682.990967,1225.374023 
	C1636.064087,1226.053589 1589.214355,1225.816040 1543.394043,1213.523438 
	C1559.847534,1227.989380 1576.393311,1242.536499 1592.939087,1257.083618 
	C1592.718140,1257.386475 1592.497192,1257.689209 1592.276245,1257.992065 
	C1551.040649,1241.086304 1509.805176,1224.180542 1467.863281,1206.985107 
	C1471.037598,1216.605469 1474.000000,1225.583374 1476.962402,1234.561279 
	C1476.671753,1234.810547 1476.380981,1235.059814 1476.090332,1235.309082 
	C1458.614868,1221.905518 1441.139404,1208.501953 1423.663940,1195.098389 
	C1436.091675,1219.062866 1454.158691,1238.314819 1472.831055,1257.319946 
	C1440.870728,1247.194702 1409.072632,1237.022705 1384.828735,1211.364380 
	C1388.200439,1223.184937 1391.516724,1234.811646 1395.192383,1247.697998 
	C1388.524658,1241.749146 1382.686768,1236.709351 1377.038208,1231.465454 
	C1365.811523,1221.043213 1354.703125,1210.493652 1343.504761,1200.040771 
	C1342.201782,1198.824707 1340.638428,1197.887817 1338.766235,1196.367188 
	C1337.998413,1195.736816 1337.660156,1195.560669 1337.321777,1195.384644 
	C1337.520630,1195.947876 1337.719482,1196.511230 1337.918335,1197.074463 
	C1349.935547,1219.665649 1361.951538,1242.257446 1373.971802,1264.846924 
	C1375.634033,1267.970581 1377.317139,1271.083008 1378.837280,1274.745483 
	C1378.553589,1275.411499 1378.423462,1275.532593 1378.293213,1275.653809 
	C1348.411133,1246.600098 1318.529053,1217.546387 1288.646973,1188.492676 
	C1288.358276,1188.582642 1288.069702,1188.672607 1287.781128,1188.762573 
	C1290.097656,1197.831909 1292.544556,1206.871338 1294.643921,1215.990723 
	C1295.205322,1218.429077 1294.704956,1221.111816 1294.691895,1223.682373 
	C1292.579468,1222.405396 1290.306885,1221.332153 1288.380493,1219.818604 
	C1275.286499,1209.531006 1262.265503,1199.150635 1248.777344,1188.355957 
	C1247.995850,1187.736938 1247.657837,1187.562012 1247.319824,1187.386963 
	C1247.515747,1187.952881 1247.711548,1188.518799 1247.907471,1189.084717 
	C1249.740845,1198.688599 1251.577515,1208.291748 1253.404663,1217.896851 
	C1253.766357,1219.798462 1254.090332,1221.707153 1254.641846,1224.785034 
	C1234.561279,1209.478394 1215.271606,1194.774536 1195.873291,1179.987915 
	C1201.916382,1199.185669 1225.697632,1233.203979 1262.817627,1254.435425 
	C1256.703735,1252.622437 1250.545410,1250.944702 1244.487915,1248.959473 
	C1238.141602,1246.879639 1231.821289,1244.682251 1225.620361,1242.208130 
	C1219.573486,1239.795532 1213.467773,1237.370483 1207.800659,1234.210449 
	C1202.030151,1230.992920 1196.762939,1226.872559 1190.882446,1222.880615 
	C1192.279053,1230.242920 1193.410034,1237.825928 1195.202393,1245.249023 
	C1197.521973,1254.854492 1200.015015,1264.447876 1203.066406,1273.840820 
	C1208.690430,1291.152100 1214.949951,1308.260132 1224.443970,1323.915405 
	C1230.157104,1333.336060 1235.875000,1342.807129 1242.362671,1351.691895 
	C1250.977173,1363.489136 1260.361206,1374.745361 1272.579956,1383.130737 
	C1281.826538,1389.476318 1291.077637,1395.839600 1300.617920,1401.722656 
	C1304.930786,1404.382202 1309.951172,1405.894287 1314.366089,1408.542969 
	C1277.718750,1397.644653 1240.998291,1386.900879 1210.714966,1359.962891 
	C1216.348755,1376.603271 1221.734741,1392.511475 1227.120728,1408.419678 
	C1226.776978,1408.624023 1226.433350,1408.828247 1226.089722,1409.032471 
	C1215.462891,1395.615601 1204.835938,1382.198730 1193.767090,1368.340820 
	C1192.987061,1367.726074 1192.649048,1367.552246 1192.311035,1367.378418 
	C1192.513428,1367.943726 1192.715820,1368.508911 1192.918213,1369.074219 
M1411.905396,452.445740 
	C1411.190063,452.110748 1410.378662,451.897980 1409.773682,451.422607 
	C1399.415527,443.283478 1389.434570,434.607880 1378.648926,427.085083 
	C1367.194214,419.095734 1354.760376,412.522797 1343.150146,404.740753 
	C1324.689697,392.367249 1304.448975,383.555267 1284.054443,375.275879 
	C1268.730713,369.055023 1252.757935,364.284607 1236.816772,359.778198 
	C1222.918091,355.849121 1208.690308,353.050995 1194.553467,350.005859 
	C1173.975830,345.573395 1153.031616,343.971100 1132.075317,343.147064 
	C1120.201416,342.680176 1108.264160,343.548615 1096.365845,344.059113 
	C1085.164185,344.539703 1073.947266,345.035248 1062.790283,346.088104 
	C1052.358154,347.072540 1041.831055,348.064850 1031.639160,350.357361 
	C1013.636108,354.406891 995.594177,358.636139 978.054993,364.297424 
	C960.032532,370.114716 942.184143,376.849060 924.988403,384.765259 
	C896.033691,398.094757 868.423706,413.946991 843.530457,434.113159 
	C830.456665,444.704254 816.763916,454.663879 804.632019,466.250305 
	C790.711182,479.545105 777.844421,494.009064 765.214172,508.567596 
	C756.195801,518.962830 747.905090,530.060364 740.024414,541.357056 
	C722.965088,565.810852 708.692261,591.830688 696.832458,619.243896 
	C686.567322,642.971191 678.049683,667.273376 672.169495,692.376831 
	C667.905457,710.580811 664.861145,729.107910 662.102539,747.614624 
	C660.046997,761.404480 658.615051,775.368713 658.152710,789.296692 
	C657.312561,814.605286 658.101196,839.918274 662.023865,865.008179 
	C664.392029,880.155396 666.621826,895.353271 669.818787,910.335327 
	C675.041870,934.811829 681.895142,958.871094 692.141479,981.790039 
	C700.495544,1000.476379 709.222046,1018.997131 717.934021,1037.520508 
	C718.474487,1038.669678 720.241333,1039.700684 721.589355,1039.942993 
	C744.386536,1044.043823 767.155273,1048.350830 790.043701,1051.876953 
	C803.331238,1053.923950 816.809387,1055.631958 830.219727,1055.772217 
	C850.048401,1055.979980 869.933289,1055.217407 889.717285,1053.796631 
	C903.707825,1052.791870 917.630310,1050.355347 931.477539,1047.949707 
	C954.543579,1043.942749 976.660461,1036.611694 997.935608,1026.943848 
	C1022.431458,1015.812561 1045.270630,1001.997498 1065.538330,984.074524 
	C1081.632568,969.842346 1096.512939,954.598694 1108.227905,936.478149 
	C1110.646484,932.737000 1113.011475,928.961060 1115.057739,925.741699 
	C1124.114380,937.747192 1132.278442,950.411987 1142.312744,961.362854 
	C1152.764771,972.769592 1164.598633,983.036560 1176.578735,992.889526 
	C1200.106323,1012.239685 1226.960327,1026.066162 1255.650635,1035.747070 
	C1273.624268,1041.811768 1292.265259,1046.362183 1310.940796,1049.751953 
	C1329.131348,1053.053955 1347.710815,1055.062256 1366.186890,1055.707275 
	C1385.009644,1056.364624 1403.925659,1054.884766 1422.779175,1053.915894 
	C1433.035400,1053.388916 1443.333496,1052.509766 1453.458862,1050.851318 
	C1471.278687,1047.932617 1488.996216,1044.373535 1506.712646,1040.860107 
	C1508.991333,1040.408203 1512.051636,1039.170166 1512.978271,1037.379639 
	C1520.234131,1023.358276 1527.464966,1009.295654 1533.917236,994.893555 
	C1543.166138,974.249084 1550.890503,952.977295 1555.981934,930.904236 
	C1560.404541,911.730347 1564.632446,892.475952 1567.885620,873.079285 
	C1570.432617,857.892578 1572.091797,842.466675 1572.787354,827.085632 
	C1573.445435,812.533936 1572.615723,797.888794 1571.915649,783.309937 
	C1571.325317,771.016968 1570.424561,758.703491 1568.859741,746.501831 
	C1566.929077,731.447998 1565.179810,716.248413 1561.518799,701.569031 
	C1556.609131,681.883118 1550.422974,662.473328 1543.924927,643.235413 
	C1532.864746,610.490295 1516.462158,580.299255 1497.743286,551.375793 
	C1491.361206,541.514404 1484.266968,532.077332 1477.015869,522.824219 
	C1467.745972,510.994995 1458.519409,499.053772 1448.298584,488.068695 
	C1436.912964,475.831848 1424.431152,464.614868 1411.905396,452.445740 
z"/>
<path fill="#929292" opacity="1.000000" stroke="none" 
	d="
M1893.509521,971.504211 
	C1893.797974,971.040955 1894.276855,970.767395 1894.755859,970.493896 
	C1894.708740,970.941284 1894.661621,971.388733 1894.348999,971.953247 
	C1893.955566,971.944885 1893.827637,971.819397 1893.509521,971.504211 
z"/>
<path fill="#929292" opacity="1.000000" stroke="none" 
	d="
M639.890381,1256.882935 
	C639.564636,1257.315430 639.056641,1257.550903 638.548706,1257.786377 
	C638.667542,1257.414673 638.786377,1257.042969 639.123047,1256.482788 
	C639.463257,1256.424805 639.585693,1256.555420 639.890381,1256.882935 
z"/>
<path fill="#929292" opacity="1.000000" stroke="none" 
	d="
M1378.880615,1275.110352 
	C1379.312256,1275.437134 1379.547363,1275.944214 1379.782471,1276.451172 
	C1379.411377,1276.330688 1379.040283,1276.210205 1378.481201,1275.871826 
	C1378.423462,1275.532593 1378.553589,1275.411499 1378.880615,1275.110352 
z"/>
<path fill="#000000" opacity="1.000000" stroke="none" 
	d="
M1412.166016,452.699829 
	C1424.431152,464.614868 1436.912964,475.831848 1448.298584,488.068695 
	C1458.519409,499.053772 1467.745972,510.994995 1477.015869,522.824219 
	C1484.266968,532.077332 1491.361206,541.514404 1497.743286,551.375793 
	C1516.462158,580.299255 1532.864746,610.490295 1543.924927,643.235413 
	C1550.422974,662.473328 1556.609131,681.883118 1561.518799,701.569031 
	C1565.179810,716.248413 1566.929077,731.447998 1568.859741,746.501831 
	C1570.424561,758.703491 1571.325317,771.016968 1571.915649,783.309937 
	C1572.615723,797.888794 1573.445435,812.533936 1572.787354,827.085632 
	C1572.091797,842.466675 1570.432617,857.892578 1567.885620,873.079285 
	C1564.632446,892.475952 1560.404541,911.730347 1555.981934,930.904236 
	C1550.890503,952.977295 1543.166138,974.249084 1533.917236,994.893555 
	C1527.464966,1009.295654 1520.234131,1023.358276 1512.978271,1037.379639 
	C1512.051636,1039.170166 1508.991333,1040.408203 1506.712646,1040.860107 
	C1488.996216,1044.373535 1471.278687,1047.932617 1453.458862,1050.851318 
	C1443.333496,1052.509766 1433.035400,1053.388916 1422.779175,1053.915894 
	C1403.925659,1054.884766 1385.009644,1056.364624 1366.186890,1055.707275 
	C1347.710815,1055.062256 1329.131348,1053.053955 1310.940796,1049.751953 
	C1292.265259,1046.362183 1273.624268,1041.811768 1255.650635,1035.747070 
	C1226.960327,1026.066162 1200.106323,1012.239685 1176.578735,992.889526 
	C1164.598633,983.036560 1152.764771,972.769592 1142.312744,961.362854 
	C1132.278442,950.411987 1124.114380,937.747192 1115.057739,925.741699 
	C1113.011475,928.961060 1110.646484,932.737000 1108.227905,936.478149 
	C1096.512939,954.598694 1081.632568,969.842346 1065.538330,984.074524 
	C1045.270630,1001.997498 1022.431458,1015.812561 997.935608,1026.943848 
	C976.660461,1036.611694 954.543579,1043.942749 931.477539,1047.949707 
	C917.630310,1050.355347 903.707825,1052.791870 889.717285,1053.796631 
	C869.933289,1055.217407 850.048401,1055.979980 830.219727,1055.772217 
	C816.809387,1055.631958 803.331238,1053.923950 790.043701,1051.876953 
	C767.155273,1048.350830 744.386536,1044.043823 721.589355,1039.942993 
	C720.241333,1039.700684 718.474487,1038.669678 717.934021,1037.520508 
	C709.222046,1018.997131 700.495544,1000.476379 692.141479,981.790039 
	C681.895142,958.871094 675.041870,934.811829 669.818787,910.335327 
	C666.621826,895.353271 664.392029,880.155396 662.023865,865.008179 
	C658.101196,839.918274 657.312561,814.605286 658.152710,789.296692 
	C658.615051,775.368713 660.046997,761.404480 662.102539,747.614624 
	C664.861145,729.107910 667.905457,710.580811 672.169495,692.376831 
	C678.049683,667.273376 686.567322,642.971191 696.832458,619.243896 
	C708.692261,591.830688 722.965088,565.810852 740.024414,541.357056 
	C747.905090,530.060364 756.195801,518.962830 765.214172,508.567596 
	C777.844421,494.009064 790.711182,479.545105 804.632019,466.250305 
	C816.763916,454.663879 830.456665,444.704254 843.530457,434.113159 
	C868.423706,413.946991 896.033691,398.094757 924.988403,384.765259 
	C942.184143,376.849060 960.032532,370.114716 978.054993,364.297424 
	C995.594177,358.636139 1013.636108,354.406891 1031.639160,350.357361 
	C1041.831055,348.064850 1052.358154,347.072540 1062.790283,346.088104 
	C1073.947266,345.035248 1085.164185,344.539703 1096.365845,344.059113 
	C1108.264160,343.548615 1120.201416,342.680176 1132.075317,343.147064 
	C1153.031616,343.971100 1173.975830,345.573395 1194.553467,350.005859 
	C1208.690308,353.050995 1222.918091,355.849121 1236.816772,359.778198 
	C1252.757935,364.284607 1268.730713,369.055023 1284.054443,375.275879 
	C1304.448975,383.555267 1324.689697,392.367249 1343.150146,404.740753 
	C1354.760376,412.522797 1367.194214,419.095734 1378.648926,427.085083 
	C1389.434570,434.607880 1399.415527,443.283478 1409.773682,451.422607 
	C1410.378662,451.897980 1411.190063,452.110748 1412.166016,452.699829 
z"/>
<path fill="#000000" opacity="1.000000" stroke="none" 
	d="
M1248.106201,1188.904175 
	C1247.711548,1188.518799 1247.515747,1187.952881 1247.319824,1187.386963 
	C1247.657837,1187.562012 1247.995850,1187.736938 1248.516968,1188.135864 
	C1248.568237,1188.481079 1248.436523,1188.602417 1248.106201,1188.904175 
z"/>
<path fill="#000000" opacity="1.000000" stroke="none" 
	d="
M806.509949,1196.517212 
	C806.796448,1196.050171 807.273315,1195.768555 807.750183,1195.486938 
	C807.705566,1195.935913 807.660950,1196.384888 807.350220,1196.952148 
	C806.956177,1196.947876 806.828247,1196.825317 806.509949,1196.517212 
z"/>
<path fill="#000000" opacity="1.000000" stroke="none" 
	d="
M892.510254,1196.503418 
	C892.798767,1196.040161 893.277893,1195.767212 893.757019,1195.494263 
	C893.709900,1195.941772 893.662842,1196.389160 893.350342,1196.954102 
	C892.956909,1196.945801 892.828857,1196.819824 892.510254,1196.503418 
z"/>
<path fill="#000000" opacity="1.000000" stroke="none" 
	d="
M1338.115479,1196.896729 
	C1337.719482,1196.511230 1337.520630,1195.947876 1337.321777,1195.384644 
	C1337.660156,1195.560669 1337.998413,1195.736816 1338.520508,1196.136719 
	C1338.573975,1196.480103 1338.443359,1196.599487 1338.115479,1196.896729 
z"/>
<path fill="#000000" opacity="1.000000" stroke="none" 
	d="
M686.109009,1214.115479 
	C686.434326,1213.682373 686.942993,1213.446777 687.451660,1213.211182 
	C687.333740,1213.583496 687.215759,1213.955811 686.879883,1214.516724 
	C686.538757,1214.574707 686.415588,1214.443970 686.109009,1214.115479 
z"/>
<path fill="#000000" opacity="1.000000" stroke="none" 
	d="
M1193.115479,1368.890747 
	C1192.715820,1368.508911 1192.513428,1367.943726 1192.311035,1367.378418 
	C1192.649048,1367.552246 1192.987061,1367.726074 1193.514893,1368.118896 
	C1193.573975,1368.461182 1193.443359,1368.584229 1193.115479,1368.890747 
z"/>
</svg>